<svg width="31" height="32" viewBox="0 0 31 32" fill="none" xmlns="http://www.w3.org/2000/svg">
<path d="M28.5781 13.6306H28.5539C28.4401 11.298 27.5274 9.07554 25.9689 7.33627C24.4105 5.59701 22.3012 4.44679 19.995 4.07868C20.1977 3.78823 20.317 3.44777 20.3397 3.0943C20.3625 2.74083 20.288 2.38788 20.1242 2.07382C19.9604 1.75976 19.7136 1.4966 19.4108 1.31296C19.1079 1.12932 18.7605 1.03223 18.4062 1.03223C18.052 1.03223 17.7046 1.12932 17.4017 1.31296C17.0989 1.4966 16.8521 1.75976 16.6883 2.07382C16.5245 2.38788 16.45 2.74083 16.4728 3.0943C16.4955 3.44777 16.6148 3.78823 16.8175 4.07868C14.5113 4.44679 12.402 5.59701 10.8436 7.33627C9.28509 9.07554 8.37237 11.298 8.25859 13.6306H8.23438C7.84898 13.6306 7.47937 13.7837 7.20686 14.0562C6.93435 14.3287 6.78125 14.6983 6.78125 15.0837C6.78125 15.4691 6.93435 15.8387 7.20686 16.1112C7.47937 16.3837 7.84898 16.5368 8.23438 16.5368H8.37L9.22734 19.1137C9.26071 19.2093 9.32284 19.2923 9.40522 19.3513C9.4876 19.4103 9.58619 19.4423 9.6875 19.4431H27.125C27.2263 19.4423 27.3249 19.4103 27.4073 19.3513C27.4897 19.2923 27.5518 19.2093 27.5852 19.1137L28.4425 16.5368H28.5781C28.9635 16.5368 29.3331 16.3837 29.6056 16.1112C29.8782 15.8387 30.0312 15.4691 30.0312 15.0837C30.0312 14.6983 29.8782 14.3287 29.6056 14.0562C29.3331 13.7837 28.9635 13.6306 28.5781 13.6306ZM18.4062 2.00556C18.5979 2.00556 18.7851 2.06237 18.9445 2.16882C19.1038 2.27527 19.2279 2.42657 19.3013 2.60358C19.3746 2.7806 19.3938 2.97538 19.3564 3.1633C19.319 3.35122 19.2267 3.52383 19.0913 3.65932C18.9558 3.7948 18.7832 3.88706 18.5952 3.92444C18.4073 3.96182 18.2125 3.94264 18.0355 3.86931C17.8585 3.79599 17.7072 3.67182 17.6008 3.51251C17.4943 3.3532 17.4375 3.16591 17.4375 2.97431C17.4383 2.71761 17.5406 2.47165 17.7221 2.29014C17.9036 2.10863 18.1496 2.00632 18.4062 2.00556ZM18.4062 4.91181C20.7621 4.91496 23.0273 5.82036 24.7362 7.44194C26.4452 9.06352 27.4682 11.2781 27.5948 13.6306H9.21766C9.34435 11.2781 10.3673 9.06352 12.0763 7.44194C13.7852 5.82036 16.0504 4.91496 18.4062 4.91181ZM26.7762 18.4743H10.0363L9.39203 16.5368H27.4205L26.7762 18.4743ZM28.5781 15.5681H8.23438C8.10591 15.5681 7.98271 15.517 7.89187 15.4262C7.80103 15.3353 7.75 15.2121 7.75 15.0837C7.75 14.9552 7.80103 14.832 7.89187 14.7412C7.98271 14.6503 8.10591 14.5993 8.23438 14.5993H28.5781C28.7066 14.5993 28.8298 14.6503 28.9206 14.7412C29.0115 14.832 29.0625 14.9552 29.0625 15.0837C29.0625 15.2121 29.0115 15.3353 28.9206 15.4262C28.8298 15.517 28.7066 15.5681 28.5781 15.5681ZM30.1039 21.8165C29.8468 21.3722 29.4242 21.0479 28.9286 20.9144C28.4329 20.781 27.9046 20.8493 27.4592 21.1045L22.7366 23.8315C22.4787 23.4451 22.0899 23.1647 21.6419 23.042L14.415 21.1093C13.8588 20.9592 13.2735 20.9542 12.7148 21.0948L10.1719 21.7293V20.8962C10.1719 20.7677 10.1208 20.6445 10.03 20.5537C9.93917 20.4628 9.81596 20.4118 9.6875 20.4118H5.8125C5.68404 20.4118 5.56083 20.4628 5.47 20.5537C5.37916 20.6445 5.32812 20.7677 5.32812 20.8962V21.3806H1.9375C1.80904 21.3806 1.68583 21.4316 1.595 21.5224C1.50416 21.6133 1.45313 21.7365 1.45312 21.8649V28.6462C1.45313 28.7746 1.50416 28.8978 1.595 28.9887C1.68583 29.0795 1.80904 29.1306 1.9375 29.1306H5.32812V29.6149C5.32812 29.7434 5.37916 29.8666 5.47 29.9574C5.56083 30.0483 5.68404 30.0993 5.8125 30.0993H9.6875C9.81596 30.0993 9.93917 30.0483 10.03 29.9574C10.1208 29.8666 10.1719 29.7434 10.1719 29.6149V28.9465L10.7967 29.2565C11.2678 29.491 11.7866 29.6136 12.3128 29.6149H19.5639C20.1594 29.6162 20.7445 29.4591 21.2592 29.1596L29.3967 24.4612C29.84 24.2031 30.1631 23.7802 30.2956 23.2847C30.4281 22.7892 30.3592 22.2614 30.1039 21.8165ZM5.32812 28.1618H2.42188V22.3493H5.32812V28.1618ZM9.20312 29.1306H6.29688V21.3806H9.20312V29.1306ZM28.9123 23.6232L20.7748 28.3216C20.4068 28.5346 19.9891 28.6466 19.5639 28.6462H12.3128C11.936 28.6469 11.5643 28.559 11.2278 28.3895L10.1719 27.8615V22.7271L12.9473 22.0345C13.3467 21.9335 13.7654 21.9368 14.1631 22.0441L21.39 23.9816C21.5759 24.0299 21.7432 24.1326 21.8704 24.2766C21.9976 24.4206 22.0789 24.5992 22.1038 24.7897C22.1288 24.9801 22.0963 25.1737 22.0106 25.3456C21.9248 25.5175 21.7897 25.6599 21.6225 25.7545C21.5133 25.8189 21.3923 25.8606 21.2666 25.8773C21.141 25.8939 21.0133 25.8851 20.8911 25.8513L15.1125 24.3013C14.9879 24.2679 14.8551 24.2854 14.7434 24.3499C14.6317 24.4144 14.5501 24.5206 14.5167 24.6452C14.4833 24.7699 14.5008 24.9026 14.5653 25.0144C14.6298 25.1261 14.736 25.2076 14.8606 25.241L20.6392 26.7862C20.8035 26.8304 20.9728 26.8532 21.143 26.854C21.4819 26.8545 21.8147 26.7642 22.1069 26.5924C22.3283 26.466 22.5223 26.2968 22.6778 26.0948C22.8333 25.8927 22.9471 25.6618 23.0127 25.4154C23.0664 25.2019 23.0844 24.9809 23.0659 24.7615L27.9436 21.9473C28.1662 21.8237 28.428 21.7916 28.6739 21.8575C28.9197 21.9235 29.1303 22.0825 29.2611 22.3009C29.3897 22.5226 29.4253 22.7862 29.3599 23.0341C29.2945 23.2819 29.1336 23.4938 28.9123 23.6232Z" fill="#C33130"/>
<path d="M7.75 28.6462C7.87846 28.6462 8.00167 28.5952 8.09251 28.5044C8.18334 28.4135 8.23438 28.2903 8.23438 28.1619V27.6775C8.23438 27.549 8.18334 27.4258 8.09251 27.335C8.00167 27.2441 7.87846 27.1931 7.75 27.1931C7.62154 27.1931 7.49833 27.2441 7.4075 27.335C7.31666 27.4258 7.26562 27.549 7.26562 27.6775V28.1619C7.26562 28.2903 7.31666 28.4135 7.4075 28.5044C7.49833 28.5952 7.62154 28.6462 7.75 28.6462ZM26.38 12.0564C26.0549 10.8115 25.4441 9.65947 24.596 8.6918C23.748 7.72413 22.6861 6.96742 21.4946 6.48172C21.4355 6.45669 21.372 6.44367 21.3077 6.44341C21.2435 6.44316 21.1799 6.45567 21.1206 6.48023C21.0612 6.50479 21.0074 6.5409 20.9621 6.58647C20.9169 6.63203 20.8811 6.68614 20.857 6.74564C20.8328 6.80514 20.8208 6.86885 20.8215 6.93307C20.8222 6.99728 20.8356 7.06071 20.8611 7.11967C20.8865 7.17863 20.9234 7.23195 20.9697 7.27652C21.0159 7.32108 21.0705 7.35601 21.1304 7.37927C22.1818 7.80787 23.1188 8.47562 23.8671 9.32953C24.6154 10.1834 25.1544 11.2 25.4413 12.2986C25.4682 12.4025 25.5288 12.4946 25.6136 12.5604C25.6985 12.6261 25.8028 12.6618 25.9102 12.6619C25.9512 12.6619 25.9921 12.6567 26.0318 12.6464C26.0934 12.6305 26.1513 12.6027 26.2021 12.5644C26.2529 12.5262 26.2958 12.4783 26.3281 12.4235C26.3604 12.3687 26.3817 12.3081 26.3906 12.2451C26.3995 12.1821 26.3959 12.118 26.38 12.0564ZM19.4351 5.94455C19.0938 5.90193 18.7502 5.88057 18.4062 5.88062C18.2778 5.88062 18.1546 5.93165 18.0637 6.02249C17.9729 6.11332 17.9219 6.23653 17.9219 6.36499C17.9219 6.49345 17.9729 6.61666 18.0637 6.7075C18.1546 6.79833 18.2778 6.84937 18.4062 6.84937C18.71 6.84931 19.0135 6.86824 19.3149 6.90604C19.335 6.90852 19.3552 6.90981 19.3755 6.90991C19.4992 6.91053 19.6185 6.86378 19.7088 6.77927C19.7992 6.69475 19.8537 6.57886 19.8614 6.45538C19.869 6.3319 19.8291 6.21018 19.7498 6.11519C19.6705 6.02021 19.5579 5.95915 19.4351 5.94455Z" fill="#C33130"/>
</svg>
