<svg width="34" height="34" viewBox="0 0 34 34" fill="none" xmlns="http://www.w3.org/2000/svg">
<path d="M28.5568 21.2086H28.3866L26.5252 16.8671C26.8408 17.0054 27.1809 17.079 27.5255 17.0836C27.6623 17.0836 27.7934 17.0293 27.8901 16.9326C27.9868 16.8359 28.0411 16.7048 28.0411 16.568V12.443C28.0411 12.3063 27.9868 12.1751 27.8901 12.0784C27.7934 11.9817 27.6623 11.9274 27.5255 11.9274C26.9885 11.9303 26.4659 12.1008 26.0305 12.4151C25.5951 12.7294 25.2687 13.1718 25.0969 13.6805C24.9452 13.4687 24.7516 13.2903 24.528 13.1563C24.3045 13.0224 24.0559 12.9358 23.7975 12.9019C23.47 12.8596 23.1374 12.8806 22.8179 12.9638H22.3693C21.4979 12.9638 21.1111 12.4482 20.5027 11.6077L20.1985 11.1797C20.5105 11.1638 20.8128 11.066 21.075 10.8961C21.274 10.7517 21.4425 10.5694 21.5708 10.3597C21.6991 10.15 21.7847 9.917 21.8227 9.67411C21.9903 9.57756 22.1368 9.44843 22.2537 9.29435C22.3706 9.14026 22.4555 8.96433 22.5033 8.77692C22.5251 8.62911 22.5107 8.47822 22.4613 8.33721C22.4119 8.1962 22.329 8.0693 22.2197 7.96739C22.0092 7.60693 21.8938 7.1988 21.8846 6.78145C22.0177 6.77348 22.1425 6.71425 22.2329 6.61618C22.3233 6.51811 22.3722 6.38884 22.3693 6.25552C22.3693 5.70901 22.2608 5.16794 22.0499 4.66374C21.8391 4.15954 21.5302 3.70226 21.1411 3.31846C20.752 2.93467 20.2906 2.63202 19.7835 2.42808C19.2765 2.22415 18.734 2.123 18.1875 2.13052C17.1152 2.15163 16.0926 2.58703 15.3342 3.34545C14.5758 4.10387 14.1404 5.12643 14.1193 6.1988C14.1096 6.74551 14.2096 7.28862 14.4133 7.79606C14.617 8.30351 14.9202 8.76501 15.3052 9.15333C15.4193 9.26672 15.5398 9.37346 15.6661 9.47302C13.6758 9.9577 12.6291 11.8243 12.0929 13.4433C11.9403 13.2896 11.7587 13.1676 11.5587 13.0844C11.3587 13.0012 11.1442 12.9584 10.9275 12.9586H5.45161C5.17662 12.9582 4.90594 13.0269 4.66446 13.1584C4.42298 13.29 4.21847 13.4802 4.06973 13.7115C3.9952 13.8263 3.96936 13.9661 3.99788 14.1C4.02641 14.234 4.10697 14.3511 4.22184 14.4256C4.33671 14.5001 4.47649 14.526 4.61041 14.4974C4.74434 14.4689 4.86145 14.3884 4.93598 14.2735C4.99154 14.1874 5.06793 14.1168 5.15806 14.0681C5.2482 14.0194 5.34917 13.9943 5.45161 13.995H6.38489V15.5419C6.38489 15.6787 6.43921 15.8098 6.53591 15.9065C6.63261 16.0032 6.76376 16.0575 6.90051 16.0575H9.47864C9.61539 16.0575 9.74654 16.0032 9.84324 15.9065C9.93994 15.8098 9.99426 15.6787 9.99426 15.5419V13.9899H10.9275C11.0081 13.9899 11.0879 14.0058 11.1624 14.0366C11.2368 14.0674 11.3044 14.1126 11.3614 14.1696C11.4184 14.2266 11.4636 14.2942 11.4944 14.3687C11.5253 14.4431 11.5411 14.5229 11.5411 14.6035V18.5377C11.5398 18.6995 11.4745 18.8543 11.3596 18.9682C11.2447 19.0822 11.0894 19.1461 10.9275 19.1461H5.45161C5.30394 19.1502 5.1599 19.1 5.04681 19.0049C4.93371 18.9099 4.85942 18.7767 4.83801 18.6305H5.86926C6.00601 18.6305 6.13717 18.5762 6.23386 18.4795C6.33056 18.3828 6.38489 18.2516 6.38489 18.1149C6.38489 17.9781 6.33056 17.847 6.23386 17.7503C6.13717 17.6536 6.00601 17.5993 5.86926 17.5993H4.83801V16.568H5.35364C5.49039 16.568 5.62154 16.5137 5.71824 16.417C5.81494 16.3203 5.86926 16.1891 5.86926 16.0524C5.86926 15.9156 5.81494 15.7845 5.71824 15.6878C5.62154 15.5911 5.49039 15.5368 5.35364 15.5368H2.77551C2.63876 15.5368 2.50761 15.5911 2.41091 15.6878C2.31421 15.7845 2.25989 15.9156 2.25989 16.0524C2.25989 16.1891 2.31421 16.3203 2.41091 16.417C2.50761 16.5137 2.63876 16.568 2.77551 16.568H3.80676V17.5993H1.74426C1.60751 17.5993 1.47636 17.6536 1.37966 17.7503C1.28296 17.847 1.22864 17.9781 1.22864 18.1149C1.22864 18.2516 1.28296 18.3828 1.37966 18.4795C1.47636 18.5762 1.60751 18.6305 1.74426 18.6305H3.80676C3.83044 19.0482 4.01289 19.4411 4.31676 19.7286C4.62063 20.0162 5.02292 20.1767 5.44129 20.1774H8.01942C7.78081 20.4114 7.57758 20.6789 7.41614 20.9715C6.72757 22.3218 6.37387 23.8179 6.38489 25.3336C6.38489 25.4704 6.43921 25.6015 6.53591 25.6982C6.63261 25.7949 6.76376 25.8493 6.90051 25.8493H8.48348C8.61544 26.8402 9.10278 27.7495 9.85489 28.4081C10.607 29.0667 11.5727 29.4298 12.5724 29.4298C13.5721 29.4298 14.5378 29.0667 15.2899 28.4081C16.042 27.7495 16.5293 26.8402 16.6613 25.8493H24.4679C24.5671 26.637 24.8916 27.3794 25.4024 27.9873C25.9132 28.5952 26.5886 29.0428 27.3475 29.2763C28.1064 29.5097 28.9165 29.5192 29.6807 29.3036C30.4449 29.088 31.1306 28.6564 31.6555 28.0607C32.1804 27.4649 32.5222 26.7303 32.6399 25.9451C32.7576 25.1599 32.6462 24.3574 32.319 23.6339C31.9918 22.9104 31.4628 22.2968 30.7955 21.8666C30.1281 21.4364 29.3508 21.2079 28.5568 21.2086ZM8.96301 15.0211H7.41614V13.9899H8.96301V15.0211ZM27.0099 13.0463V15.9647C26.7077 15.8584 26.446 15.661 26.2609 15.3996C26.0758 15.1382 25.9763 14.8258 25.9763 14.5055C25.9763 14.1852 26.0758 13.8728 26.2609 13.6114C26.446 13.3501 26.7077 13.1526 27.0099 13.0463ZM23.648 13.9177C23.8501 13.948 24.0379 14.04 24.1857 14.1813C24.3334 14.3225 24.4337 14.506 24.473 14.7066L24.6071 15.0211C23.8892 15.3902 23.0882 15.5678 22.2816 15.5368C22.2106 15.2305 22.2478 14.909 22.3869 14.627C22.526 14.3451 22.7584 14.1199 23.0447 13.9899C23.2392 13.9268 23.4444 13.904 23.648 13.9229V13.9177ZM21.106 8.8852C21.0202 8.92844 20.9481 8.99481 20.898 9.0768C20.8479 9.1588 20.8217 9.25317 20.8224 9.34927C20.8186 9.47907 20.7877 9.60665 20.7318 9.72385C20.6758 9.84105 20.5961 9.94529 20.4975 10.0299C20.2036 10.2258 19.6571 10.1794 18.9507 9.90098C18.913 9.89681 18.8749 9.89681 18.8372 9.90098L18.7599 9.83395V7.85911C18.7599 7.71624 18.788 7.57476 18.8427 7.44276C18.8974 7.31076 18.9775 7.19083 19.0785 7.0898C19.1796 6.98877 19.2995 6.90863 19.4315 6.85396C19.5635 6.79928 19.705 6.77114 19.8479 6.77114H20.8224C20.8386 7.4386 21.0482 8.08701 21.4257 8.6377C21.3324 8.73749 21.2246 8.82266 21.106 8.89036V8.8852ZM15.1505 6.20911C15.1763 5.40909 15.5056 4.64888 16.0716 4.08288C16.6376 3.51689 17.3978 3.18755 18.1979 3.16177H18.2443C18.9757 3.16129 19.6837 3.42 20.2425 3.89197C20.8013 4.36395 21.1748 5.01866 21.2968 5.73989H19.8479C19.2862 5.74125 18.748 5.96496 18.3508 6.3621C17.9537 6.75924 17.73 7.29748 17.7286 7.85911V9.30802C17.0004 9.18499 16.3401 8.80547 15.8673 8.23806C15.3944 7.67065 15.1402 6.9528 15.1505 6.21427V6.20911ZM16.6974 10.3805C18.3835 10.3805 19.0022 11.2622 19.6571 12.1904C20.1314 12.871 20.6883 13.6135 21.6164 13.8765C21.3245 14.3482 21.1925 14.9015 21.24 15.4543C20.6001 15.3145 19.9964 15.0422 19.4681 14.655C18.9397 14.2678 18.4982 13.7743 18.1721 13.2061C18.144 13.138 18.1016 13.0767 18.0478 13.0263C17.994 12.9759 17.93 12.9376 17.8602 12.9141C17.7903 12.8905 17.7162 12.8822 17.6429 12.8897C17.5696 12.8972 17.4987 12.9203 17.4351 12.9575C17.3714 12.9948 17.3165 13.0452 17.274 13.1054C17.2315 13.1656 17.2024 13.2343 17.1887 13.3067C17.175 13.3791 17.177 13.4537 17.1945 13.5253C17.2121 13.5969 17.2447 13.6639 17.2904 13.7218C17.4773 14.0354 17.6912 14.3322 17.9297 14.6086L17.8833 14.6396C17.4027 15.1924 17.0646 15.8545 16.8985 16.568H12.5724V16.0524C12.6085 15.7379 13.1963 10.3805 16.6974 10.3805ZM12.5724 18.5325V17.5993H17.213C17.3161 17.5993 19.7911 17.6302 19.7911 20.1774V22.7555H17.7286V21.7243C17.7417 21.3822 17.6839 21.0411 17.5589 20.7224C17.434 20.4038 17.2446 20.1143 17.0025 19.8723C16.7605 19.6302 16.471 19.4408 16.1523 19.3158C15.8336 19.1909 15.4926 19.1331 15.1505 19.1461H12.4538C12.5325 18.9512 12.5728 18.7428 12.5724 18.5325ZM12.5724 28.4274C11.8418 28.4266 11.1351 28.1674 10.5773 27.6955C10.0196 27.2236 9.6468 26.5696 9.52504 25.8493H10.5821C10.7008 26.2862 10.96 26.6719 11.3197 26.9469C11.6794 27.2219 12.1196 27.3709 12.5724 27.3709C13.0252 27.3709 13.4653 27.2219 13.825 26.9469C14.1847 26.6719 14.444 26.2862 14.5627 25.8493H15.6197C15.498 26.5696 15.1252 27.2236 14.5675 27.6955C14.0097 28.1674 13.303 28.4266 12.5724 28.4274ZM11.6855 25.8493H13.4593C13.3679 26.0031 13.2382 26.1306 13.0827 26.2192C12.9272 26.3077 12.7513 26.3543 12.5724 26.3543C12.3934 26.3543 12.2176 26.3077 12.0621 26.2192C11.9066 26.1306 11.7768 26.0031 11.6855 25.8493ZM7.41614 24.818C7.48192 23.6312 7.80196 22.4724 8.35457 21.42C8.55981 21.0384 8.86609 20.7206 9.23988 20.5015C9.61366 20.2823 10.0405 20.1702 10.4738 20.1774H15.1505C15.3566 20.1662 15.5627 20.1986 15.7554 20.2724C15.9482 20.3462 16.1232 20.4597 16.2691 20.6057C16.415 20.7516 16.5286 20.9266 16.6024 21.1193C16.6762 21.3121 16.7085 21.5182 16.6974 21.7243V23.2711C16.6974 23.829 16.8783 24.3717 17.213 24.818H7.41614ZM19.2755 24.818C18.9564 24.8171 18.6453 24.7175 18.385 24.5329C18.1247 24.3483 17.9278 24.0877 17.8214 23.7868H20.3068C20.4414 23.7781 20.5763 23.7976 20.7029 23.8441C20.8296 23.8905 20.9451 23.9629 21.0422 24.0566C21.1392 24.1503 21.2157 24.2631 21.2666 24.388C21.3176 24.5129 21.3419 24.6471 21.338 24.7819C21.1671 24.8047 20.9948 24.8168 20.8224 24.818H19.2755ZM22.5807 24.2147C22.5062 24.299 22.4213 24.3735 22.328 24.4365C22.2714 24.0466 22.0968 23.6835 21.8276 23.3959C21.5584 23.1083 21.2076 22.91 20.8224 22.8277V20.1774C20.8689 19.3361 20.5997 18.5077 20.0676 17.8544C19.5354 17.2011 18.7785 16.77 17.9452 16.6454C18.0774 16.1829 18.3038 15.7528 18.6104 15.3821C18.6237 15.364 18.6357 15.3451 18.6464 15.3254C19.4468 15.9746 20.4098 16.3919 21.4308 16.5319L22.8849 22.8535C22.9665 23.3296 22.8572 23.8187 22.5807 24.2147ZM23.9161 22.6421L22.4982 16.568C23.3707 16.5761 24.2327 16.3782 25.0144 15.9905L27.4482 21.6624L25.2 24.818H23.4005C23.6268 24.5078 23.789 24.1556 23.8775 23.782C23.966 23.4084 23.9792 23.0208 23.9161 22.6421ZM28.5568 24.818H27.6699C27.7834 24.6214 27.9586 24.4678 28.1683 24.3809C28.3781 24.294 28.6106 24.2788 28.8299 24.3375C29.0492 24.3963 29.2429 24.5258 29.3811 24.7059C29.5193 24.886 29.5942 25.1066 29.5942 25.3336C29.5942 25.5607 29.5193 25.7813 29.3811 25.9614C29.2429 26.1415 29.0492 26.271 28.8299 26.3297C28.6106 26.3885 28.3781 26.3733 28.1683 26.2864C27.9586 26.1995 27.7834 26.0459 27.6699 25.8493H28.5568C28.6935 25.8493 28.8247 25.7949 28.9214 25.6982C29.0181 25.6015 29.0724 25.4704 29.0724 25.3336C29.0724 25.1969 29.0181 25.0657 28.9214 24.969C28.8247 24.8723 28.6935 24.818 28.5568 24.818ZM26.4633 24.818L26.6438 24.5654C26.6126 24.6478 26.5868 24.7322 26.5664 24.818H26.4633ZM28.5568 28.4274C27.8262 28.4266 27.1194 28.1674 26.5617 27.6955C26.0039 27.2236 25.6312 26.5696 25.5094 25.8493H26.5664C26.6794 26.2842 26.9312 26.6704 27.2838 26.949C27.6363 27.2277 28.0702 27.3836 28.5194 27.393C28.9687 27.4024 29.4087 27.2649 29.7727 27.0013C30.1366 26.7377 30.4044 26.3625 30.5355 25.9327C30.6666 25.5028 30.6538 25.042 30.4989 24.6202C30.344 24.1983 30.0557 23.8386 29.6776 23.5957C29.2995 23.3528 28.8525 23.2401 28.4045 23.2745C27.9564 23.309 27.5319 23.4889 27.1955 23.7868L28.2938 22.2399H28.5568C29.3773 22.2399 30.1642 22.5658 30.7444 23.146C31.3246 23.7262 31.6505 24.5131 31.6505 25.3336C31.6505 26.1542 31.3246 26.9411 30.7444 27.5212C30.1642 28.1014 29.3773 28.4274 28.5568 28.4274Z" fill="#C33130"/>
</svg>
