<svg width="33" height="34" viewBox="0 0 33 34" fill="none" xmlns="http://www.w3.org/2000/svg">
<g clip-path="url(#clip0_0_565)">
<path d="M32.4199 15.8756V13.9154C32.4199 11.5049 30.4588 9.54382 28.0483 9.54382H21.2135C20.5736 9.54334 19.9416 9.68417 19.3625 9.95626L19.4176 9.09916H20.3979C20.5175 9.09916 20.6323 9.05162 20.7169 8.96701C20.8015 8.8824 20.849 8.76764 20.849 8.64799V7.17207C20.849 6.1095 19.9845 5.24499 18.922 5.24499H14.2737V1.09937C14.2737 0.979707 14.2262 0.86495 14.1416 0.780339C14.057 0.695727 13.9422 0.648193 13.8226 0.648193H12.0065C11.8868 0.648193 11.772 0.695727 11.6874 0.780339C11.6028 0.86495 11.5553 0.979707 11.5553 1.09937V5.24499H6.90699C5.84442 5.24499 4.97997 6.1095 4.97997 7.17207V8.64799C4.97997 8.76764 5.0275 8.8824 5.11212 8.96701C5.19673 9.05162 5.31148 9.09916 5.43114 9.09916H6.41141L6.92852 17.1396C6.84891 17.1364 6.76926 17.1347 6.68959 17.1345C3.32082 17.1345 0.580078 19.8753 0.580078 23.244C0.580078 24.8523 1.20502 26.317 2.22434 27.4092L0.695707 30.0569C0.652306 30.1321 0.631522 30.2182 0.63585 30.305C0.640177 30.3917 0.669431 30.4753 0.720103 30.5458C0.770774 30.6163 0.840711 30.6707 0.921521 30.7024C1.00233 30.7341 1.09058 30.7419 1.17569 30.7247L3.07854 30.3406L3.69742 32.1807C3.72754 32.2702 3.78503 32.3481 3.86179 32.4032C3.93854 32.4584 4.03068 32.488 4.12519 32.488C4.20437 32.488 4.28214 32.4671 4.3507 32.4275C4.41927 32.3879 4.4762 32.331 4.51578 32.2624L6.20626 29.3345C6.52802 29.3598 6.85129 29.3598 7.17305 29.3345L8.86353 32.2624C8.90692 32.3376 8.9711 32.3987 9.04837 32.4383C9.12563 32.478 9.2127 32.4945 9.29911 32.4858C9.38552 32.4772 9.4676 32.4438 9.5355 32.3897C9.6034 32.3356 9.65423 32.263 9.68189 32.1807L10.3008 30.3406L12.2036 30.7247C12.2887 30.7419 12.377 30.7341 12.4578 30.7024C12.5386 30.6707 12.6085 30.6163 12.6592 30.5458C12.7099 30.4753 12.7391 30.3917 12.7435 30.305C12.7478 30.2182 12.727 30.1321 12.6836 30.0569L11.155 27.4092C11.3939 27.1532 11.6106 26.8773 11.8027 26.5844H16.926C17.1797 27.4522 17.9822 28.0882 18.9309 28.0882H30.3309C31.4828 28.0882 32.42 27.1511 32.42 25.9992V23.7166C32.42 23.597 32.3725 23.4822 32.2878 23.3976C32.2032 23.313 32.0885 23.2654 31.9688 23.2654H31.8875C32.2202 22.852 32.42 22.3272 32.42 21.7564C32.42 20.9496 32.0217 20.2341 31.4116 19.7962C32.0217 19.3582 32.42 18.6427 32.42 17.8359C32.42 17.2651 32.2202 16.7403 31.8875 16.3269H31.9688C32.0884 16.3268 32.2032 16.2793 32.2878 16.1947C32.3724 16.1101 32.4199 15.9953 32.4199 15.8756ZM28.0483 10.4462C29.9613 10.4462 31.5176 12.0024 31.5176 13.9154V15.4245H17.7442V13.9154C17.7442 12.0024 19.3005 10.4462 21.2135 10.4462H28.0483ZM23.1555 16.3268L21.749 17.7333L20.3425 16.3268H23.1555ZM12.4577 1.55054H13.3714V5.24499H12.4577V1.55054ZM5.88231 7.17207C5.88231 6.60701 6.34199 6.14733 6.90699 6.14733H18.922C19.487 6.14733 19.9467 6.60701 19.9467 7.17207V8.19681H5.88231V7.17207ZM4.23405 30.9457L3.80699 29.6758C3.77195 29.5717 3.70011 29.4839 3.60493 29.4289C3.50975 29.374 3.3978 29.3557 3.29007 29.3774L1.97691 29.6424L2.90426 28.0362C3.58488 28.575 4.38249 28.9718 5.25216 29.1824L4.23405 30.9457ZM1.48242 23.244C1.48242 20.3728 3.8184 18.0369 6.68965 18.0369C9.56091 18.0369 11.8969 20.3728 11.8969 23.244C11.8969 26.1153 9.56091 28.4513 6.68965 28.4513C3.8184 28.4513 1.48242 26.1153 1.48242 23.244ZM10.0892 29.3774C9.98144 29.3555 9.86943 29.3738 9.77423 29.4288C9.67903 29.4837 9.60719 29.5716 9.57226 29.6758L9.14519 30.9457L8.12715 29.1824C8.99682 28.9719 9.79443 28.575 10.4751 28.0362L11.4024 29.6424L10.0892 29.3774ZM7.83943 17.2435L7.31562 9.09916H18.5135L18.4197 10.556C17.4563 11.3586 16.8419 12.5665 16.8419 13.9155V15.8757C16.8419 15.9954 16.8894 16.1101 16.974 16.1947C17.0586 16.2793 17.1734 16.3269 17.293 16.3269H17.3744C17.0416 16.7403 16.8419 17.2651 16.8419 17.836C16.8419 18.6427 17.2401 19.3582 17.8503 19.7962C17.2401 20.2341 16.8419 20.9496 16.8419 21.7563C16.8419 22.3271 17.0417 22.852 17.3744 23.2654H17.293C17.1734 23.2654 17.0586 23.313 16.974 23.3976C16.8894 23.4822 16.8419 23.597 16.8419 23.7166V25.682H12.2911C12.6176 24.9348 12.7992 24.1103 12.7992 23.2441C12.7992 20.2682 10.6604 17.7829 7.83943 17.2435ZM31.5176 25.9991C31.5176 26.6534 30.9853 27.1858 30.3309 27.1858H18.9308C18.2765 27.1858 17.7442 26.6534 17.7442 25.9991V24.1677H31.5176V25.9991ZM31.5176 21.7563C31.5176 22.5884 30.8406 23.2654 30.0085 23.2654H19.2532C18.4212 23.2654 17.7442 22.5884 17.7442 21.7563C17.7442 20.9242 18.4212 20.2473 19.2532 20.2473H21.9483L24.3118 22.6108C24.4 22.6989 24.5154 22.743 24.6309 22.743C24.7464 22.743 24.8618 22.6989 24.9499 22.6108L27.3134 20.2473H30.0085C30.8406 20.2473 31.5176 20.9242 31.5176 21.7563ZM23.2244 20.2473H26.0374L24.6309 21.6537L23.2244 20.2473ZM31.5176 17.8358C31.5176 18.668 30.8406 19.3449 30.0085 19.3449H19.2532C18.4212 19.3449 17.7442 18.668 17.7442 17.8359C17.7442 17.0634 18.3277 16.4251 19.077 16.3374L21.43 18.6903C21.5181 18.7784 21.6335 18.8225 21.749 18.8225C21.8645 18.8225 21.9799 18.7784 22.068 18.6903L24.4316 16.3268H30.0086C30.8406 16.3268 31.5176 17.0038 31.5176 17.8358ZM6.68959 18.7918C4.23463 18.7918 2.23736 20.7891 2.23736 23.244C2.23736 25.699 4.23463 27.6963 6.68959 27.6963C9.14454 27.6963 11.1419 25.699 11.1419 23.244C11.1419 20.7891 9.14454 18.7918 6.68959 18.7918ZM6.68959 26.7939C4.73215 26.7939 3.13971 25.2015 3.13971 23.244C3.13971 21.2866 4.73215 19.6942 6.68959 19.6942C8.64703 19.6942 10.2395 21.2866 10.2395 23.244C10.2395 25.2015 8.64703 26.7939 6.68959 26.7939ZM8.82737 21.6C8.86927 21.6419 8.90251 21.6916 8.92518 21.7463C8.94786 21.8011 8.95953 21.8598 8.95953 21.919C8.95953 21.9783 8.94786 22.0369 8.92518 22.0917C8.90251 22.1464 8.86927 22.1962 8.82737 22.2381L6.01573 25.0497C5.9311 25.1343 5.81635 25.1818 5.69669 25.1818L5.68908 25.1818C5.62855 25.1807 5.56885 25.1676 5.51353 25.143C5.4582 25.1184 5.4084 25.0829 5.36708 25.0387L4.10889 23.6924C4.06843 23.6491 4.0369 23.5983 4.01609 23.5428C3.99528 23.4873 3.9856 23.4283 3.98761 23.3691C3.98961 23.3098 4.00326 23.2516 4.02778 23.1977C4.05229 23.1437 4.08719 23.0951 4.13048 23.0547C4.17376 23.0142 4.2246 22.9827 4.28007 22.9619C4.33555 22.941 4.39458 22.9314 4.4538 22.9334C4.51302 22.9354 4.57126 22.949 4.6252 22.9735C4.67915 22.9981 4.72773 23.033 4.76818 23.0763L5.70771 24.0816L8.18929 21.5999C8.27395 21.5154 8.3887 21.4679 8.50834 21.4679C8.62798 21.4679 8.74272 21.5154 8.82737 21.6ZM26.6685 11.9753C26.6685 11.8363 26.7237 11.703 26.822 11.6047C26.9203 11.5064 27.0536 11.4512 27.1926 11.4512C27.3316 11.4512 27.4649 11.5064 27.5632 11.6047C27.6615 11.703 27.7167 11.8363 27.7167 11.9753C27.7152 12.1133 27.6593 12.2451 27.5612 12.3422C27.463 12.4392 27.3306 12.4936 27.1926 12.4936C27.0546 12.4936 26.9222 12.4392 26.8241 12.3422C26.7259 12.2451 26.67 12.1133 26.6685 11.9753ZM25.3876 13.8954C25.3876 13.7564 25.4429 13.623 25.5411 13.5248C25.6394 13.4265 25.7728 13.3712 25.9118 13.3712C26.0508 13.3712 26.1841 13.4265 26.2824 13.5248C26.3807 13.623 26.4359 13.7564 26.4359 13.8954C26.4359 14.0344 26.3807 14.1677 26.2824 14.266C26.1841 14.3643 26.0508 14.4195 25.9118 14.4195C25.7728 14.4195 25.6394 14.3643 25.5411 14.266C25.4429 14.1677 25.3876 14.0344 25.3876 13.8954ZM27.9493 13.8954C27.9493 13.7564 28.0045 13.6231 28.1028 13.5248C28.2011 13.4265 28.3344 13.3713 28.4734 13.3713C28.6124 13.3713 28.7457 13.4265 28.844 13.5248C28.9423 13.6231 28.9975 13.7564 28.9975 13.8954C28.9975 14.1848 28.7629 14.4194 28.4734 14.4194C28.1839 14.4194 27.9493 14.1848 27.9493 13.8954ZM20.2643 13.8954C20.2643 13.7564 20.3195 13.623 20.4178 13.5248C20.5161 13.4265 20.6494 13.3712 20.7884 13.3712C20.9274 13.3712 21.0607 13.4265 21.159 13.5248C21.2573 13.623 21.3125 13.7564 21.3125 13.8954C21.3125 14.0344 21.2573 14.1677 21.159 14.266C21.0607 14.3643 20.9274 14.4195 20.7884 14.4195C20.6494 14.4195 20.5161 14.3643 20.4178 14.266C20.3195 14.1677 20.2643 14.0344 20.2643 13.8954ZM21.5451 11.9753C21.5451 11.8363 21.6004 11.703 21.6986 11.6047C21.7969 11.5064 21.9303 11.4512 22.0693 11.4512C22.2083 11.4512 22.3416 11.5064 22.4399 11.6047C22.5382 11.703 22.5934 11.8363 22.5934 11.9753C22.5934 12.1143 22.5382 12.2476 22.4399 12.3459C22.3416 12.4442 22.2083 12.4994 22.0693 12.4994C21.9303 12.4994 21.7969 12.4442 21.6986 12.3459C21.6004 12.2476 21.5451 12.1143 21.5451 11.9753ZM22.8259 13.8954C22.8252 13.8261 22.8382 13.7573 22.8642 13.693C22.8902 13.6288 22.9286 13.5703 22.9774 13.521C23.0261 13.4717 23.0842 13.4326 23.1481 13.4059C23.2121 13.3792 23.2807 13.3654 23.35 13.3654C23.4194 13.3654 23.488 13.3792 23.552 13.4059C23.6159 13.4326 23.674 13.4717 23.7227 13.521C23.7715 13.5703 23.8099 13.6288 23.8359 13.693C23.8619 13.7573 23.8749 13.8261 23.8741 13.8954C23.8726 14.0334 23.8167 14.1652 23.7186 14.2622C23.6205 14.3593 23.488 14.4137 23.35 14.4137C23.212 14.4137 23.0796 14.3593 22.9815 14.2622C22.8834 14.1652 22.8275 14.0334 22.8259 13.8954ZM24.1068 11.9753C24.1068 11.8363 24.162 11.703 24.2603 11.6047C24.3586 11.5064 24.4919 11.4512 24.631 11.4512C24.77 11.4512 24.9033 11.5064 25.0016 11.6047C25.0999 11.703 25.1551 11.8363 25.1551 11.9753C25.1551 12.1143 25.0999 12.2476 25.0016 12.3459C24.9033 12.4442 24.77 12.4994 24.631 12.4994C24.4919 12.4994 24.3586 12.4442 24.2603 12.3459C24.162 12.2476 24.1068 12.1143 24.1068 11.9753Z" fill="#C33130"/>
</g>
<defs>
<clipPath id="clip0_0_565">
<rect width="33" height="33" fill="white" transform="translate(0 0.0681152)"/>
</clipPath>
</defs>
</svg>
