<svg width="34" height="34" viewBox="0 0 34 34" fill="none" xmlns="http://www.w3.org/2000/svg">
<g clip-path="url(#clip0_0_572)">
<path d="M26.838 22.7556V3.50562C26.838 2.59393 26.4759 1.71959 25.8312 1.07494C25.1865 0.430279 24.3122 0.0681152 23.4005 0.0681152L11.0255 0.0681152C10.1138 0.0681152 9.23949 0.430279 8.59483 1.07494C7.95018 1.71959 7.58801 2.59393 7.58801 3.50562V28.2556C7.58801 29.1673 7.95018 30.0416 8.59483 30.6863C9.23949 31.331 10.1138 31.6931 11.0255 31.6931H15.3499L16.7661 32.9031C16.9047 33.0216 17.0847 33.0802 17.2665 33.0661C17.4483 33.0519 17.617 32.9661 17.7355 32.8275C17.854 32.6889 17.9126 32.5089 17.8985 32.3271C17.8843 32.1453 17.7985 31.9766 17.6599 31.8581L13.5349 28.3106C13.4273 28.2164 13.3557 28.0878 13.3322 27.9467C13.3088 27.8056 13.3349 27.6607 13.4063 27.5367C13.4776 27.4127 13.5896 27.3173 13.7234 27.2666C13.8571 27.2159 14.0043 27.2131 14.1399 27.2587L16.993 28.2556C17.0964 28.2897 17.2064 28.2988 17.314 28.282C17.4216 28.2653 17.5236 28.2233 17.6118 28.1594C17.7055 28.0928 17.781 28.0038 17.8315 27.9005C17.8819 27.7972 17.9056 27.6829 17.9005 27.5681V18.6306C17.9005 18.4483 17.9729 18.2734 18.1019 18.1445C18.2308 18.0155 18.4057 17.9431 18.588 17.9431C18.7704 17.9431 18.9452 18.0155 19.0742 18.1445C19.2031 18.2734 19.2755 18.4483 19.2755 18.6306V26.1931C19.2755 26.3755 19.3479 26.5503 19.4769 26.6793C19.6058 26.8082 19.7807 26.8806 19.963 26.8806C20.1454 26.8806 20.3202 26.8082 20.4492 26.6793C20.5781 26.5503 20.6505 26.3755 20.6505 26.1931V23.4431C20.6505 23.2608 20.7229 23.0859 20.8519 22.957C20.9808 22.828 21.1557 22.7556 21.338 22.7556C21.5204 22.7556 21.6952 22.828 21.8242 22.957C21.9531 23.0859 22.0255 23.2608 22.0255 23.4431V26.1931C22.0255 26.3755 22.0979 26.5503 22.2269 26.6793C22.3558 26.8082 22.5307 26.8806 22.713 26.8806C22.8954 26.8806 23.0702 26.8082 23.1992 26.6793C23.3281 26.5503 23.4005 26.3755 23.4005 26.1931V24.1306C23.4005 23.9483 23.4729 23.7734 23.6019 23.6445C23.7308 23.5155 23.9057 23.4431 24.088 23.4431C24.2704 23.4431 24.4452 23.5155 24.5742 23.6445C24.7031 23.7734 24.7755 23.9483 24.7755 24.1306V26.1931C24.7755 26.3755 24.8479 26.5503 24.9769 26.6793C25.1058 26.8082 25.2807 26.8806 25.463 26.8806C25.6454 26.8806 25.8202 26.8082 25.9492 26.6793C26.0781 26.5503 26.1505 26.3755 26.1505 26.1931V24.8181C26.1505 24.6358 26.2229 24.4609 26.3519 24.332C26.4808 24.203 26.6557 24.1306 26.838 24.1306C27.0204 24.1306 27.1952 24.203 27.3242 24.332C27.4531 24.4609 27.5255 24.6358 27.5255 24.8181V32.3806C27.5255 32.563 27.5979 32.7378 27.7269 32.8668C27.8558 32.9957 28.0307 33.0681 28.213 33.0681C28.3954 33.0681 28.5702 32.9957 28.6992 32.8668C28.8281 32.7378 28.9005 32.563 28.9005 32.3806V24.8181C28.9005 24.2711 28.6832 23.7465 28.2964 23.3597C27.9096 22.9729 27.385 22.7556 26.838 22.7556ZM20.6505 1.44312V2.13062C20.6505 2.31295 20.5781 2.48782 20.4492 2.61675C20.3202 2.74568 20.1454 2.81812 19.963 2.81812H14.463C14.2807 2.81812 14.1058 2.74568 13.9769 2.61675C13.8479 2.48782 13.7755 2.31295 13.7755 2.13062V1.44312H20.6505ZM18.588 16.5681C18.1625 16.5693 17.7478 16.7021 17.4007 16.9483C17.0536 17.1944 16.7911 17.5419 16.6493 17.9431H12.4005V17.2556C12.4005 16.6236 12.525 15.9978 12.7668 15.414C13.0087 14.8301 13.3632 14.2995 13.8101 13.8527C14.2569 13.4058 14.7875 13.0513 15.3713 12.8094C15.9552 12.5676 16.581 12.4431 17.213 12.4431C17.845 12.4431 18.4708 12.5676 19.0547 12.8094C19.6386 13.0513 20.1691 13.4058 20.616 13.8527C21.0628 14.2995 21.4173 14.8301 21.6592 15.414C21.901 15.9978 22.0255 16.6236 22.0255 17.2556V17.9431H20.5268C20.3849 17.5419 20.1225 17.1944 19.7754 16.9483C19.4283 16.7021 19.0135 16.5693 18.588 16.5681ZM24.088 22.0681C23.7328 22.0694 23.3842 22.1642 23.0774 22.3431C22.8273 21.9495 22.4511 21.6523 22.0104 21.5C21.5696 21.3477 21.0903 21.3492 20.6505 21.5044V19.3181H23.4005C23.5829 19.3181 23.7577 19.2457 23.8867 19.1168C24.0156 18.9878 24.088 18.813 24.088 18.6306C24.088 18.4483 24.0156 18.2734 23.8867 18.1445C23.7577 18.0155 23.5829 17.9431 23.4005 17.9431V17.2556C23.3998 15.7341 22.8385 14.2663 21.8239 13.1325C20.8093 11.9987 19.4126 11.2784 17.9005 11.1094V10.3806C17.9005 10.1983 17.8281 10.0234 17.6992 9.89448C17.5702 9.76555 17.3953 9.69312 17.213 9.69312C17.0307 9.69312 16.8558 9.76555 16.7269 9.89448C16.5979 10.0234 16.5255 10.1983 16.5255 10.3806V11.1094C15.0135 11.2784 13.6167 11.9987 12.6021 13.1325C11.5875 14.2663 11.0262 15.7341 11.0255 17.2556V17.9431C10.8432 17.9431 10.6683 18.0155 10.5394 18.1445C10.4104 18.2734 10.338 18.4483 10.338 18.6306C10.338 18.813 10.4104 18.9878 10.5394 19.1168C10.6683 19.2457 10.8432 19.3181 11.0255 19.3181H16.5255V26.6125L14.5455 25.925C14.1081 25.779 13.6335 25.7892 13.2027 25.9538C12.772 26.1184 12.4116 26.4273 12.1829 26.8278C11.9543 27.2283 11.8716 27.6957 11.9489 28.1503C12.0261 28.605 12.2586 29.0188 12.6068 29.3212L13.7755 30.3181H11.0255C10.4785 30.3181 9.9539 30.1008 9.5671 29.714C9.18031 29.3272 8.96301 28.8026 8.96301 28.2556V3.50562C8.96301 2.95861 9.18031 2.434 9.5671 2.04721C9.9539 1.66041 10.4785 1.44312 11.0255 1.44312H12.4005V2.13062C12.4005 2.67762 12.6178 3.20223 13.0046 3.58902C13.3914 3.97582 13.916 4.19312 14.463 4.19312H19.963C20.51 4.19312 21.0346 3.97582 21.4214 3.58902C21.8082 3.20223 22.0255 2.67762 22.0255 2.13062V1.44312H23.4005C23.9475 1.44312 24.4721 1.66041 24.8589 2.04721C25.2457 2.434 25.463 2.95861 25.463 3.50562V22.6044C25.0865 22.2621 24.5968 22.0711 24.088 22.0681Z" fill="#C33130"/>
</g>
<defs>
<clipPath id="clip0_0_572">
<rect width="33" height="33" fill="white" transform="translate(0.713013 0.0681152)"/>
</clipPath>
</defs>
</svg>
