<svg width="35" height="30" viewBox="0 0 35 30" fill="none" xmlns="http://www.w3.org/2000/svg">
<path d="M33.736 10.2895C33.2871 9.72624 32.6135 9.40311 31.8879 9.40311H25.34L21.7894 1.27279C21.5692 0.768702 20.9821 0.538338 20.4779 0.758608C19.9737 0.978745 19.7435 1.56598 19.9637 2.07013L23.1662 9.40317H11.3154L14.5179 2.07013C14.738 1.56598 14.5078 0.978811 14.0037 0.758608C13.4996 0.538338 12.9124 0.768569 12.6922 1.27279L9.14155 9.40317H2.59363C1.86807 9.40317 1.19451 9.72624 0.745542 10.2896C0.304803 10.8426 0.142175 11.5535 0.299358 12.2403L3.79611 27.5138C4.04029 28.5802 4.98372 29.325 6.09038 29.325H28.3912C29.4979 29.325 30.4413 28.5802 30.6855 27.5138L34.1822 12.2402C34.3394 11.5535 34.1768 10.8425 33.736 10.2895ZM28.3912 27.3328H6.09038C5.92124 27.3328 5.77309 27.2219 5.7381 27.069L2.24134 11.7957C2.21392 11.6759 2.25994 11.5857 2.3035 11.5312C2.34387 11.4804 2.43532 11.3954 2.59363 11.3954H8.27156L8.01065 11.9928C7.79051 12.497 8.02068 13.0841 8.52483 13.3043C8.65034 13.3594 8.78589 13.3878 8.92294 13.3879C9.3069 13.3879 9.6728 13.1646 9.83629 12.7902L10.4454 11.3955H24.0363L24.6454 12.7902C24.8089 13.1646 25.1748 13.3879 25.5588 13.3879C25.6918 13.3879 25.8271 13.3611 25.9569 13.3043C26.461 13.0842 26.6913 12.497 26.4711 11.9928L26.2101 11.3954H31.8881C32.0464 11.3954 32.1378 11.4804 32.1782 11.5312C32.2217 11.5857 32.2678 11.6759 32.2404 11.7957L28.7436 27.0691C28.7085 27.2219 28.5603 27.3328 28.3912 27.3328Z" fill="white"/>
<path d="M11.2642 15.7117C10.7141 15.7117 10.2681 16.1577 10.2681 16.7078V24.0125C10.2681 24.5626 10.7141 25.0085 11.2642 25.0085C11.8143 25.0085 12.2603 24.5626 12.2603 24.0125V16.7078C12.2603 16.1577 11.8144 15.7117 11.2642 15.7117ZM17.2408 15.7117C16.6907 15.7117 16.2447 16.1577 16.2447 16.7078V24.0125C16.2447 24.5626 16.6907 25.0085 17.2408 25.0085C17.7909 25.0085 18.2369 24.5626 18.2369 24.0125V16.7078C18.2369 16.1577 17.7909 15.7117 17.2408 15.7117ZM23.2173 15.7117C22.6672 15.7117 22.2213 16.1577 22.2213 16.7078V24.0125C22.2213 24.5626 22.6672 25.0085 23.2173 25.0085C23.7675 25.0085 24.2134 24.5626 24.2134 24.0125V16.7078C24.2134 16.1577 23.7675 15.7117 23.2173 15.7117Z" fill="white"/>
</svg>
