<svg width="19" height="14" viewBox="0 0 19 14" fill="none" xmlns="http://www.w3.org/2000/svg">
<path opacity="0.2" d="M17.0625 0.620605H1.3125C0.964403 0.620605 0.630564 0.758886 0.384422 1.00503C0.138281 1.25117 0 1.58501 0 1.93311V12.4331C0 12.7812 0.138281 13.115 0.384422 13.3612C0.630564 13.6073 0.964403 13.7456 1.3125 13.7456H17.0625C17.4106 13.7456 17.7444 13.6073 17.9906 13.3612C18.2367 13.115 18.375 12.7812 18.375 12.4331V1.93311C18.375 1.58501 18.2367 1.25117 17.9906 1.00503C17.7444 0.758886 17.4106 0.620605 17.0625 0.620605ZM15.6187 1.93311L9.1875 6.38248L2.75625 1.93311H15.6187ZM1.3125 12.4331V2.53029L8.81344 7.72123C8.92329 7.79744 9.0538 7.83828 9.1875 7.83828C9.3212 7.83828 9.45171 7.79744 9.56156 7.72123L17.0625 2.53029V12.4331H1.3125Z" fill="black"/>
</svg>
