<svg width="55" height="56" viewBox="0 0 55 56" fill="none" xmlns="http://www.w3.org/2000/svg">
<path d="M37.4007 24.0875C40.4302 25.7109 46.2654 25.2139 50.7017 20.7765C55.1019 16.3772 56.7657 9.94384 52.6055 5.6463L52.6088 5.64461C52.572 5.60928 52.5358 5.57335 52.5002 5.53682C52.5002 5.53682 52.5002 5.53852 52.4969 5.53852C48.2021 1.38021 41.7694 3.04297 37.3677 7.44248C32.9312 11.8798 32.4342 17.715 34.0568 20.7444C33.6388 23.2251 30.2357 25.9165 27.1832 27.6632C24.8292 26.2111 21.8606 23.6447 21.5487 18.4851C21.7742 16.4241 21.0953 14.2823 19.5181 12.705C19.3734 12.5602 18.957 12.208 18.957 12.208L7.45776 3.25202L6.41025 4.29868L18.8879 16.0044L17.5344 17.3578L5.44602 5.26857L4.33605 6.37769L16.4228 18.4677L15.2799 19.6105L3.19323 7.52392L2.18198 8.5261L14.1963 20.5413L12.8198 21.9228L1.14608 9.56441L0 10.7139L9.54257 22.738C9.54257 22.738 9.76975 22.9708 9.86592 23.0564C11.2548 24.27 12.9982 24.8427 14.7236 24.7942C14.7359 24.7942 14.7541 24.7975 14.7606 24.7992C19.304 24.8445 22.1114 27.6066 23.8771 29.9894C17.968 35.9006 12.0585 41.8114 6.14865 47.7219L6.15191 47.7251C6.13874 47.735 6.12146 47.7465 6.10829 47.7597C5.01645 48.8507 5.01645 50.6213 6.10829 51.7157C6.16423 51.77 6.37484 51.979 6.42838 52.035C7.52022 53.1277 9.29345 53.1277 10.3836 52.0367C10.3968 52.0235 10.4082 52.0071 10.419 51.9923L10.4222 51.9972C10.4222 51.9972 22.8735 39.5452 27.6474 34.773C32.1908 39.3147 44.7844 51.9051 44.7844 51.9051L44.7876 51.9018C44.7974 51.9134 44.8023 51.9297 44.8189 51.9463C45.8918 53.0175 47.6428 53.0175 48.7172 51.9431C49.7917 50.8668 49.795 49.1226 48.7187 48.0446C48.7025 48.0299 48.686 48.0249 48.6729 48.0102L48.676 48.007C48.676 48.007 34.766 34.0986 30.9071 30.2364C32.6498 27.3958 35.1149 24.4724 37.4007 24.0875ZM35.9229 15.7789C35.9886 15.0409 36.1368 14.1918 36.3819 13.2933C36.5159 12.8287 36.6724 12.371 36.851 11.9217C37.0566 11.4495 37.2724 11.01 37.5882 10.5502C38.1921 9.66737 38.9276 8.98103 39.66 8.40515C40.384 7.82177 41.1196 7.36841 41.7728 7.02452C42.4212 6.67399 43.0021 6.44695 43.4168 6.31693C43.838 6.1787 44.0831 6.16057 44.0831 6.16057C44.0831 6.16057 43.8807 6.31367 43.5781 6.59665C43.272 6.88133 42.8359 7.28952 42.311 7.77815C41.3039 8.76065 39.869 10.0359 38.852 11.423C38.6068 11.7399 38.388 12.1578 38.1971 12.5404C37.9897 12.9313 37.8053 13.3352 37.6376 13.735C37.2886 14.5299 37.0007 15.2999 36.7523 15.964C36.5104 16.6297 36.3212 17.1924 36.2093 17.5924C36.0875 17.9931 36.1039 18.2309 36.1237 18.2309C36.1139 18.2457 35.9641 18.0153 35.9198 17.5734C35.8652 17.1365 35.8538 16.5153 35.9229 15.7789Z" fill="#F2C017"/>
</svg>
