<svg width="79" height="87" viewBox="0 0 79 87" fill="none" xmlns="http://www.w3.org/2000/svg">
<path d="M69.5417 9.21872H51.6025C50.7237 6.70998 49.0871 4.53633 46.9189 2.99846C44.7507 1.46059 42.1582 0.634521 39.5 0.634521C36.8418 0.634521 34.2493 1.46059 32.0811 2.99846C29.9129 4.53633 28.2763 6.70998 27.3975 9.21872H9.45833C7.18398 9.22552 5.00472 10.132 3.3965 11.7402C1.78829 13.3484 0.881793 15.5277 0.875 17.8021V77.8854C0.881793 80.1597 1.78829 82.339 3.3965 83.9472C5.00472 85.5554 7.18398 86.4619 9.45833 86.4687H69.5417C71.816 86.4619 73.9953 85.5554 75.6035 83.9472C77.2117 82.339 78.1182 80.1597 78.125 77.8854V17.8021C78.1182 15.5277 77.2117 13.3484 75.6035 11.7402C73.9953 10.132 71.816 9.22552 69.5417 9.21872ZM39.5 9.21872C40.3488 9.21872 41.1786 9.47043 41.8843 9.942C42.5901 10.4136 43.1402 11.0838 43.465 11.868C43.7898 12.6522 43.8748 13.5152 43.7092 14.3477C43.5436 15.1802 43.1349 15.9449 42.5347 16.5451C41.9345 17.1453 41.1698 17.554 40.3373 17.7196C39.5048 17.8852 38.6418 17.8002 37.8576 17.4754C37.0734 17.1505 36.4032 16.6005 35.9316 15.8947C35.46 15.189 35.2083 14.3592 35.2083 13.5104C35.2117 12.3732 35.665 11.2836 36.4691 10.4795C37.2732 9.67537 38.3628 9.22212 39.5 9.21872ZM30.9167 30.6771L42.8904 42.668L53.7054 31.853L48.0833 26.3854H65.25V43.5521L59.7738 37.9257L42.899 54.8134L30.9167 42.8225L19.8184 53.9121L13.75 47.8437L30.9167 30.6771ZM69.5417 73.5937H9.45833V65.0104H69.5417V73.5937Z" fill="#D6D6D6"/>
</svg>
