<svg width="87" height="103" viewBox="0 0 87 103" fill="none" xmlns="http://www.w3.org/2000/svg">
<path d="M85.623 19.9706C85.2373 19.5302 84.7649 19.174 84.2352 18.9246C83.7056 18.6751 83.1301 18.5376 82.5449 18.5207C73.4532 18.283 61.9489 8.56139 54.3427 4.74643C49.6443 2.39724 46.5424 0.848278 44.2131 0.44024C43.7401 0.371319 43.2595 0.372654 42.7869 0.444201C40.4575 0.852239 37.3556 2.4012 32.6612 4.75039C25.0551 8.56139 13.5507 18.283 4.45901 18.5207C3.87338 18.5385 3.29764 18.6763 2.76747 18.9257C2.2373 19.1751 1.76401 19.5308 1.37694 19.9706C0.574617 20.8783 0.160661 22.0647 0.224128 23.2745C2.17717 62.981 16.4189 87.5544 41.4083 101.836C42.058 102.204 42.779 102.394 43.496 102.394C44.2131 102.394 44.9341 102.204 45.5877 101.836C70.5771 87.5544 84.8149 62.981 86.7719 23.2745C86.839 22.0649 86.4262 20.8776 85.623 19.9706ZM65.7519 35.587L44.6647 66.7048C43.908 67.822 42.7196 68.5628 41.543 68.5628C40.3624 68.5628 39.0512 67.9171 38.2232 67.0891L23.3595 52.2215C22.8742 51.7344 22.6018 51.0748 22.6018 50.3873C22.6018 49.6997 22.8742 49.0402 23.3595 48.5531L27.0319 44.8728C27.52 44.3895 28.1791 44.1183 28.8661 44.1183C29.553 44.1183 30.2121 44.3895 30.7002 44.8728L40.3664 54.539L57.1594 29.7516C57.5479 29.1844 58.1451 28.794 58.8205 28.6656C59.496 28.5372 60.1948 28.6812 60.7644 29.0663L65.0626 31.982C65.6305 32.3699 66.0217 32.9668 66.1509 33.6423C66.2801 34.3178 66.1366 35.0169 65.7519 35.587Z" fill="#D6D6D6"/>
</svg>
