<svg width="99" height="98" viewBox="0 0 99 98" fill="none" xmlns="http://www.w3.org/2000/svg">
<path d="M84.005 34.4325V14.2187H63.8342L49.5 0.0133057L35.3804 14.2187H15.1667V34.4325L0.961243 48.5521L15.1667 62.8862V83.0571H35.3804L49.5 97.2625L63.8342 83.0571H84.005V62.8862L98.2104 48.5521L84.005 34.4325ZM35.8954 27.3083C40.1012 27.3083 43.4917 30.6987 43.4917 34.9475C43.4917 36.9621 42.6913 38.8943 41.2668 40.3188C39.8422 41.7434 37.9101 42.5437 35.8954 42.5437C31.6467 42.5437 28.2562 39.1533 28.2562 34.9475C28.2562 30.6987 31.6467 27.3083 35.8954 27.3083ZM63.3192 70.0104C59.1133 70.0104 55.7229 66.5771 55.7229 62.3712C55.7229 60.3566 56.5232 58.4244 57.9478 56.9999C59.3724 55.5753 61.3045 54.775 63.3192 54.775C67.525 54.775 70.9583 58.1654 70.9583 62.3712C70.9583 64.3973 70.1535 66.3403 68.7209 67.7729C67.2882 69.2056 65.3452 70.0104 63.3192 70.0104ZM34.4792 70.1391L28.0417 63.7016L64.6496 27.0937L71.0871 33.5312L34.4792 70.1391Z" fill="#D6D6D6"/>
</svg>
