<svg width="40" height="40" viewBox="0 0 40 40" fill="none" xmlns="http://www.w3.org/2000/svg">
<path d="M20.0001 9.45012C19.2233 9.45012 18.4783 9.75871 17.929 10.308C17.3797 10.8573 17.0711 11.6023 17.0711 12.3791C17.0711 13.156 17.3797 13.901 17.929 14.4503C18.4783 14.9996 19.2233 15.3082 20.0001 15.3082C20.7769 15.3082 21.5219 14.9996 22.0712 14.4503C22.6205 13.901 22.9291 13.156 22.9291 12.3791C22.9291 11.6023 22.6205 10.8573 22.0712 10.308C21.5219 9.75871 20.7769 9.45012 20.0001 9.45012ZM15.1184 12.3791C15.1184 11.0844 15.6327 9.84275 16.5482 8.92725C17.4637 8.01176 18.7054 7.49744 20.0001 7.49744C21.2948 7.49744 22.5365 8.01176 23.452 8.92725C24.3675 9.84275 24.8818 11.0844 24.8818 12.3791C24.8818 13.6738 24.3675 14.9155 23.452 15.831C22.5365 16.7465 21.2948 17.2608 20.0001 17.2608C18.7054 17.2608 17.4637 16.7465 16.5482 15.831C15.6327 14.9155 15.1184 13.6738 15.1184 12.3791ZM30.7398 11.4028C30.222 11.4028 29.7253 11.6085 29.3591 11.9747C28.9929 12.3409 28.7872 12.8376 28.7872 13.3555C28.7872 13.8734 28.9929 14.37 29.3591 14.7362C29.7253 15.1024 30.222 15.3082 30.7398 15.3082C31.2577 15.3082 31.7544 15.1024 32.1206 14.7362C32.4868 14.37 32.6925 13.8734 32.6925 13.3555C32.6925 12.8376 32.4868 12.3409 32.1206 11.9747C31.7544 11.6085 31.2577 11.4028 30.7398 11.4028ZM26.8345 13.3555C26.8345 12.3197 27.2459 11.3264 27.9783 10.594C28.7107 9.86157 29.7041 9.45012 30.7398 9.45012C31.7756 9.45012 32.7689 9.86157 33.5013 10.594C34.2337 11.3264 34.6452 12.3197 34.6452 13.3555C34.6452 14.3912 34.2337 15.3846 33.5013 16.117C32.7689 16.8494 31.7756 17.2608 30.7398 17.2608C29.7041 17.2608 28.7107 16.8494 27.9783 16.117C27.2459 15.3846 26.8345 14.3912 26.8345 13.3555ZM7.30768 13.3555C7.30768 12.8376 7.51341 12.3409 7.87961 11.9747C8.24581 11.6085 8.74248 11.4028 9.26036 11.4028C9.77824 11.4028 10.2749 11.6085 10.6411 11.9747C11.0073 12.3409 11.213 12.8376 11.213 13.3555C11.213 13.8734 11.0073 14.37 10.6411 14.7362C10.2749 15.1024 9.77824 15.3082 9.26036 15.3082C8.74248 15.3082 8.24581 15.1024 7.87961 14.7362C7.51341 14.37 7.30768 13.8734 7.30768 13.3555ZM9.26036 9.45012C8.2246 9.45012 7.23125 9.86157 6.49885 10.594C5.76646 11.3264 5.355 12.3197 5.355 13.3555C5.355 14.3912 5.76646 15.3846 6.49885 16.117C7.23125 16.8494 8.2246 17.2608 9.26036 17.2608C10.2961 17.2608 11.2895 16.8494 12.0219 16.117C12.7543 15.3846 13.1657 14.3912 13.1657 13.3555C13.1657 12.3197 12.7543 11.3264 12.0219 10.594C11.2895 9.86157 10.2961 9.45012 9.26036 9.45012ZM10.432 32.8784C9.90325 32.9048 9.37466 32.8235 8.87833 32.6394C8.382 32.4553 7.92829 32.1722 7.54476 31.8073C7.16123 31.4424 6.8559 31.0033 6.6473 30.5167C6.43871 30.0302 6.33121 29.5063 6.33134 28.9769V21.6544C6.33134 21.5249 6.38277 21.4007 6.47432 21.3092C6.56587 21.2176 6.69004 21.1662 6.81951 21.1662H10.264C10.3421 20.4496 10.596 19.7837 10.9768 19.2135H6.81951C5.47216 19.2135 4.37866 20.307 4.37866 21.6544V28.9769C4.37857 29.8129 4.55741 30.6392 4.90316 31.4003C5.2489 32.1615 5.75355 32.8398 6.38319 33.3897C7.01284 33.9396 7.75289 34.3484 8.55362 34.5886C9.35435 34.8288 10.1972 34.8948 11.0256 34.7822C10.7628 34.1697 10.5638 33.5317 10.432 32.8784ZM28.9746 34.7822C29.803 34.8948 30.6458 34.8288 31.4466 34.5886C32.2473 34.3484 32.9874 33.9396 33.617 33.3897C34.2466 32.8398 34.7513 32.1615 35.097 31.4003C35.4428 30.6392 35.6216 29.8129 35.6215 28.9769V21.6544C35.6215 20.307 34.528 19.2135 33.1807 19.2135H29.0234C29.4062 19.7837 29.6581 20.4496 29.7362 21.1662H33.1807C33.3102 21.1662 33.4343 21.2176 33.5259 21.3092C33.6174 21.4007 33.6689 21.5249 33.6689 21.6544V28.9769C33.669 29.5063 33.5615 30.0302 33.3529 30.5167C33.1443 31.0033 32.839 31.4424 32.4554 31.8073C32.0719 32.1722 31.6182 32.4553 31.1219 32.6394C30.6255 32.8235 30.0969 32.9048 29.5682 32.8784C29.4363 33.5317 29.2374 34.1697 28.9746 34.7822ZM14.6302 19.2135C13.2829 19.2135 12.1894 20.307 12.1894 21.6544V30.9296C12.1894 33.0011 13.0123 34.9878 14.4771 36.4526C15.9419 37.9174 17.9286 38.7403 20.0001 38.7403C22.0716 38.7403 24.0583 37.9174 25.5231 36.4526C26.9879 34.9878 27.8108 33.0011 27.8108 30.9296V21.6544C27.8108 20.307 26.7173 19.2135 25.37 19.2135H14.6302ZM14.1421 21.6544C14.1421 21.5249 14.1935 21.4007 14.285 21.3092C14.3766 21.2176 14.5008 21.1662 14.6302 21.1662H25.37C25.4994 21.1662 25.6236 21.2176 25.7152 21.3092C25.8067 21.4007 25.8581 21.5249 25.8581 21.6544V30.9296C25.8581 32.4832 25.241 33.9733 24.1424 35.0718C23.0438 36.1704 21.5537 36.7876 20.0001 36.7876C18.4465 36.7876 16.9564 36.1704 15.8578 35.0718C14.7592 33.9733 14.1421 32.4832 14.1421 30.9296V21.6544Z" fill="white"/>
</svg>
