<svg width="24" height="36" viewBox="0 0 24 36" fill="none" xmlns="http://www.w3.org/2000/svg">
<path d="M16.5393 15.0986L22.6442 1.26929M8.42348 15.4048L1.35571 1.26929M14.0649 14.4485L7.63581 1.26929M16.6834 1.26929L14.9803 5.36322M2.99329 24.1953C2.99329 26.8012 4.02846 29.3003 5.87109 31.1429C7.71372 32.9856 10.2129 34.0208 12.8187 34.0208C15.4246 34.0208 17.9237 32.9856 19.7664 31.1429C21.609 29.3003 22.6442 26.8012 22.6442 24.1953C22.6442 21.5894 21.609 19.0903 19.7664 17.2477C17.9237 15.4051 15.4246 14.3699 12.8187 14.3699C10.2129 14.3699 7.71372 15.4051 5.87109 17.2477C4.02846 19.0903 2.99329 21.5894 2.99329 24.1953Z" stroke="white" stroke-width="2.45636" stroke-linecap="round" stroke-linejoin="round"/>
</svg>
