<svg width="28" height="28" viewBox="0 0 28 28" fill="none" xmlns="http://www.w3.org/2000/svg">
<path d="M11.4255 12.6411L2.20738 21.8593C1.18917 22.8774 1.18917 24.5284 2.20738 25.5465C3.22558 26.5648 4.87642 26.5648 5.89463 25.5465L15.1127 16.3285" stroke="white" stroke-width="1.95546" stroke-linecap="round" stroke-linejoin="round"/>
<path d="M20.7367 16.8033L25.7926 21.8593C26.8109 22.8774 26.8109 24.5283 25.7926 25.5465C24.7745 26.5648 23.1235 26.5648 22.1054 25.5465L14.0117 17.4529" stroke="white" stroke-width="1.95546" stroke-linecap="round" stroke-linejoin="round"/>
<path d="M7.10049 6.51037L4.33505 7.43219L1.56961 2.82313L3.41323 0.979492L8.02231 3.74493L7.10049 6.51037ZM7.10049 6.51037L10.7901 10.2" stroke="white" stroke-width="1.95546" stroke-linecap="round" stroke-linejoin="round"/>
<path d="M11.4255 12.6411C10.3255 9.83434 10.5406 6.15158 12.8083 3.88388C15.076 1.61617 19.2609 1.11844 21.5655 2.50116L17.6015 6.46511L17.2331 10.5208L21.2888 10.1524L25.2527 6.18841C26.6355 8.49295 26.1378 12.678 23.8701 14.9457C21.6023 17.2134 17.9196 17.4285 15.1129 16.3283" stroke="white" stroke-width="1.95546" stroke-linecap="round" stroke-linejoin="round"/>
</svg>
