<svg width="36" height="37" viewBox="0 0 36 37" fill="none" xmlns="http://www.w3.org/2000/svg">
<path d="M18 35.2371C27.1635 35.2371 34.5922 27.8084 34.5922 18.6449C34.5922 9.48129 27.1635 2.05273 18 2.05273C8.8364 2.05273 1.40784 9.48129 1.40784 18.6449C1.40784 27.8084 8.8364 35.2371 18 35.2371Z" stroke="white" stroke-width="2.48882" stroke-linecap="round" stroke-linejoin="round"/>
<path d="M22.9777 12.8376C21.8411 11.7011 19.8396 10.9105 18 10.861M18 10.861C15.8113 10.8021 13.852 11.7923 13.852 14.4969C13.852 19.4745 22.9777 16.9857 22.9777 21.9633C22.9777 24.8022 20.5489 26.0221 18 25.9305M18 10.861V7.85999M13.0224 23.6225C14.0917 25.0483 16.08 25.8615 18 25.9305M18 25.9305V29.4298" stroke="white" stroke-width="2.48882" stroke-linecap="round" stroke-linejoin="round"/>
</svg>
